<svg data-v-423bf9ae="" xmlns="http://www.w3.org/2000/svg" viewBox="0 0 598.1679841829407 190" class="iconAboveSlogan"><!----><!----><!----><g data-v-423bf9ae="" id="b3ecaebd-5ea6-4196-8390-1e787394804c" fill="#131619" transform="matrix(6.54307587140309,0,0,6.54307587140309,-2.290082877739792,49.21591411303969)"><path d="M0.74 14.57L0.74 14.57Q2.14 15.02 3.58 15.02L3.58 15.02L3.58 15.02Q4.30 15.02 4.72 14.95L4.72 14.95L4.72 14.18L3.46 14.07L3.46 14.07Q2.37 13.97 1.72 13.67L1.72 13.67L1.72 13.67Q1.06 13.37 0.77 12.81L0.77 12.81L0.77 12.81Q0.48 12.25 0.48 11.35L0.48 11.35L0.48 11.35Q0.48 10.18 0.81 9.50L0.81 9.50L0.81 9.50Q1.15 8.82 1.90 8.52L1.90 8.52L1.90 8.52Q2.65 8.22 3.96 8.22L3.96 8.22L3.96 8.22Q5.68 8.22 7.25 8.64L7.25 8.64L6.90 10.88L6.90 10.88Q6.17 10.72 5.67 10.66L5.67 10.66L5.67 10.66Q5.17 10.60 4.63 10.60L4.63 10.60L4.63 10.60Q3.92 10.60 3.49 10.67L3.49 10.67L3.49 11.42L4.49 11.52L4.49 11.52Q6.20 11.69 6.96 12.37L6.96 12.37L6.96 12.37Q7.73 13.05 7.73 14.39L7.73 14.39L7.73 14.39Q7.73 15.95 6.83 16.67L6.83 16.67L6.83 16.67Q5.94 17.39 4.00 17.39L4.00 17.39L4.00 17.39Q2.02 17.39 0.35 16.88L0.35 16.88L0.74 14.57ZM8.78 8.43L11.58 8.43L11.58 17.18L8.78 17.18L8.78 8.43ZM12.98 17.18L12.98 8.43L15.78 8.43L15.78 14.87L18.44 14.87L18.44 17.18L12.98 17.18ZM18.93 12.81L18.93 12.81Q18.93 11.05 19.32 10.06L19.32 10.06L19.32 10.06Q19.71 9.07 20.61 8.65L20.61 8.65L20.61 8.65Q21.52 8.22 23.13 8.22L23.13 8.22L23.13 8.22Q24.74 8.22 25.64 8.65L25.64 8.65L25.64 8.65Q26.54 9.07 26.94 10.06L26.94 10.06L26.94 10.06Q27.33 11.05 27.33 12.81L27.33 12.81L27.33 12.81Q27.33 14.57 26.94 15.55L26.94 15.55L26.94 15.55Q26.54 16.53 25.64 16.96L25.64 16.96L25.64 16.96Q24.74 17.39 23.13 17.39L23.13 17.39L23.13 17.39Q21.52 17.39 20.61 16.96L20.61 16.96L20.61 16.96Q19.71 16.53 19.32 15.55L19.32 15.55L19.32 15.55Q18.93 14.57 18.93 12.81L18.93 12.81ZM21.94 14.99L23.21 14.99L23.21 14.99Q23.84 14.99 24.08 14.83L24.08 14.83L24.08 14.83Q24.32 14.67 24.32 14.25L24.32 14.25L24.32 10.61L23.03 10.61L23.03 10.61Q22.41 10.61 22.18 10.77L22.18 10.77L22.18 10.77Q21.94 10.93 21.94 11.35L21.94 11.35L21.94 14.99ZM34.20 12.68L36.33 17.18L33.36 17.18L32.26 14.83L32.26 14.83Q31.91 14.11 31.91 13.71L31.91 13.71L31.25 13.71L31.25 17.18L28.45 17.18L28.45 8.43L31.25 8.43L31.25 11.66L31.91 11.66L31.91 11.66Q31.91 11.26 32.26 10.54L32.26 10.54L33.29 8.43L36.26 8.43L34.20 12.68ZM36.82 12.81L36.82 12.81Q36.82 11.05 37.21 10.06L37.21 10.06L37.21 10.06Q37.60 9.07 38.51 8.65L38.51 8.65L38.51 8.65Q39.41 8.22 41.02 8.22L41.02 8.22L41.02 8.22Q42.63 8.22 43.53 8.65L43.53 8.65L43.53 8.65Q44.44 9.07 44.83 10.06L44.83 10.06L44.83 10.06Q45.22 11.05 45.22 12.81L45.22 12.81L45.22 12.81Q45.22 14.57 44.83 15.55L44.83 15.55L44.83 15.55Q44.44 16.53 43.53 16.96L43.53 16.96L43.53 16.96Q42.63 17.39 41.02 17.39L41.02 17.39L41.02 17.39Q39.41 17.39 38.51 16.96L38.51 16.96L38.51 16.96Q37.60 16.53 37.21 15.55L37.21 15.55L37.21 15.55Q36.82 14.57 36.82 12.81L36.82 12.81ZM39.83 14.99L41.10 14.99L41.10 14.99Q41.73 14.99 41.97 14.83L41.97 14.83L41.97 14.83Q42.21 14.67 42.21 14.25L42.21 14.25L42.21 10.61L40.92 10.61L40.92 10.61Q40.31 10.61 40.07 10.77L40.07 10.77L40.07 10.77Q39.83 10.93 39.83 11.35L39.83 11.35L39.83 14.99ZM55.30 17.02L55.30 17.02Q54.75 17.22 54.14 17.30L54.14 17.30L54.14 17.30Q53.54 17.39 52.70 17.39L52.70 17.39L52.70 17.39Q51.21 17.39 50.39 16.97L50.39 16.97L50.39 16.97Q49.57 16.55 49.22 15.56L49.22 15.56L49.22 15.56Q48.86 14.57 48.86 12.81L48.86 12.81L48.86 12.81Q48.86 11.03 49.24 10.05L49.24 10.05L49.24 10.05Q49.62 9.07 50.50 8.65L50.50 8.65L50.50 8.65Q51.38 8.22 52.98 8.22L52.98 8.22L52.98 8.22Q53.58 8.22 54.28 8.33L54.28 8.33L54.28 8.33Q54.99 8.44 55.30 8.58L55.30 8.58L54.95 10.79L54.95 10.79Q54.54 10.68 54.03 10.61L54.03 10.61L54.03 10.61Q53.52 10.53 53.19 10.53L53.19 10.53L53.19 10.53Q52.43 10.53 52.15 10.74L52.15 10.74L52.15 10.74Q51.87 10.95 51.87 11.51L51.87 11.51L51.87 14.90L51.87 14.90Q52.50 15.01 52.98 15.01L52.98 15.01L52.98 15.01Q53.55 15.01 54.12 14.92L54.12 14.92L54.12 14.92Q54.68 14.83 55.09 14.67L55.09 14.67L55.30 17.02ZM64.05 17.18L61.01 17.18L59.82 14.64L59.08 14.64L59.08 17.18L56.28 17.18L56.28 8.43L60.34 8.43L60.34 8.43Q62.13 8.43 62.92 9.18L62.92 9.18L62.92 9.18Q63.70 9.94 63.70 11.66L63.70 11.66L63.70 11.66Q63.70 13.47 62.62 14.15L62.62 14.15L64.05 17.18ZM59.08 10.74L59.08 12.61L60.21 12.61L60.21 12.61Q60.52 12.61 60.64 12.49L60.64 12.49L60.64 12.49Q60.76 12.36 60.76 12.03L60.76 12.03L60.76 11.33L60.76 11.33Q60.76 10.99 60.64 10.86L60.64 10.86L60.64 10.86Q60.52 10.74 60.21 10.74L60.21 10.74L59.08 10.74ZM67.83 13.82L67.83 14.87L71.12 14.87L71.12 17.18L65.03 17.18L65.03 8.43L71.19 8.43L70.84 10.74L67.83 10.74L67.83 11.79L70.63 11.79L70.63 13.82L67.83 13.82ZM72.31 8.43L76.22 8.43L76.22 8.43Q77.87 8.43 78.75 8.81L78.75 8.81L78.75 8.81Q79.63 9.20 80.00 10.13L80.00 10.13L80.00 10.13Q80.36 11.06 80.36 12.81L80.36 12.81L80.36 12.81Q80.36 14.56 80.00 15.48L80.00 15.48L80.00 15.48Q79.63 16.41 78.75 16.79L78.75 16.79L78.75 16.79Q77.87 17.18 76.22 17.18L76.22 17.18L72.31 17.18L72.31 8.43ZM75.11 10.61L75.11 14.99L76.26 14.99L76.26 14.99Q76.87 14.99 77.11 14.80L77.11 14.80L77.11 14.80Q77.35 14.62 77.35 14.11L77.35 14.11L77.35 11.49L77.35 11.49Q77.35 10.99 77.11 10.80L77.11 10.80L77.11 10.80Q76.87 10.61 76.26 10.61L76.26 10.61L75.11 10.61ZM81.48 8.43L84.28 8.43L84.28 17.18L81.48 17.18L81.48 8.43ZM89.81 10.74L89.81 17.18L87.01 17.18L87.01 10.74L85.05 10.74L85.05 8.43L91.77 8.43L91.77 10.74L89.81 10.74Z"></path></g><!----><g data-v-423bf9ae="" id="adb60631-7919-4925-9cca-32d3e9d872d4" transform="matrix(1.087481947483286,0,0,1.087481947483286,245.29590062792244,-8.754094293865123)" stroke="none" fill="#131619"><path d="M2.17 45.09h75.74a1.5 1.5 0 0 0 1.5-1.5v-6.24a8.27 8.27 0 0 0-8.26-8.26H8.92a8.27 8.27 0 0 0-8.25 8.26v6.24a1.5 1.5 0 0 0 1.5 1.5zm1.5-7.74a5.26 5.26 0 0 1 5.26-5.26h62.23a5.26 5.26 0 0 1 5.26 5.26v4.74H3.67zM52.69 84.61a2.39 2.39 0 0 0 2.18-3.36 23.54 23.54 0 0 1 5-26.53 2.31 2.31 0 0 0-1.6-4H2.17a1.5 1.5 0 0 0-1.5 1.5v24.1a8.26 8.26 0 0 0 8.26 8.26zm-49-8.26V53.76h53a26.54 26.54 0 0 0-4.91 27.85H8.92a5.26 5.26 0 0 1-5.25-5.25z"></path><path d="M76.39 51.8a19.79 19.79 0 1 0 19.79 19.79A19.81 19.81 0 0 0 76.39 51.8zm0 36.58a16.79 16.79 0 1 1 16.79-16.79 16.81 16.81 0 0 1-16.79 16.79z"></path><path d="M80.11 70v-9.4a1.5 1.5 0 0 0-1.5-1.5h-4.44a1.5 1.5 0 0 0-1.5 1.5v11.91a1.5 1.5 0 0 0 .44 1.06L81 81.48a1.5 1.5 0 0 0 2.12 0l3.15-3.15a1.5 1.5 0 0 0 0-2.12zm2 8.25l-6.41-6.41v-9.69h1.45v8.52a1.5 1.5 0 0 0 .44 1.06l5.55 5.55zM89.74 8.62H27.51a9.6 9.6 0 0 0-9.59 9.59v6.46a1.5 1.5 0 0 0 1.5 1.5h8.69a1.5 1.5 0 0 0 1.5-1.5v-4.35h58V49A3 3 0 0 0 89 51.57a23.73 23.73 0 0 1 6.2 5.63 2.26 2.26 0 0 0 1.8.9 2.33 2.33 0 0 0 2.33-2.32V18.21a9.6 9.6 0 0 0-9.59-9.59zm6.59 45.24A26.34 26.34 0 0 0 90.64 49V18.82a1.5 1.5 0 0 0-1.5-1.5h-61a1.5 1.5 0 0 0-1.5 1.5v4.36h-5.72v-5a6.6 6.6 0 0 1 6.59-6.59h62.23a6.6 6.6 0 0 1 6.59 6.59z"></path></g><!----><g data-v-423bf9ae="" id="8e6f4fa0-a0d8-4a5b-81fd-a50d8786fa3e" fill="#131619" transform="matrix(1.2468759458205256,0,0,1.2468759458205256,75.19572279685997,197.21135820888242)"><path d="M1.99 12.43L1.99 12.43L1.99 12.43Q1.99 11.45 2.22 10.51L2.22 10.51L2.22 10.51Q2.45 9.56 2.87 8.71L2.87 8.71L2.87 8.71Q3.29 7.87 3.87 7.16L3.87 7.16L3.87 7.16Q4.45 6.45 5.15 5.94L5.15 5.94L5.15 5.94Q5.84 5.42 6.62 5.13L6.62 5.13L6.62 5.13Q7.41 4.84 8.23 4.84L8.23 4.84L8.23 4.84Q9.20 4.84 9.74 5.25L9.74 5.25L9.74 5.25Q10.28 5.66 10.28 6.38L10.28 6.38L10.28 6.38Q10.28 6.66 10.20 6.96L10.20 6.96L10.20 6.96Q10.12 7.25 9.97 7.54L9.97 7.54L9.97 7.54Q9.83 7.83 9.63 8.09L9.63 8.09L9.63 8.09Q9.44 8.36 9.20 8.55L9.20 8.55L9.20 8.55Q8.83 8.50 8.57 8.22L8.57 8.22L8.57 8.22Q8.30 7.95 8.23 7.59L8.23 7.59L8.23 7.59Q8.72 7.18 9.01 6.74L9.01 6.74L9.01 6.74Q9.30 6.30 9.30 5.94L9.30 5.94L9.30 5.94Q9.30 5.32 8.53 5.32L8.53 5.32L8.53 5.32Q8.20 5.32 7.86 5.45L7.86 5.45L7.86 5.45Q7.52 5.59 7.17 5.82L7.17 5.82L7.17 5.82Q6.82 6.06 6.49 6.40L6.49 6.40L6.49 6.40Q6.16 6.73 5.88 7.14L5.88 7.14L5.88 7.14Q3.93 9.94 3.93 12.87L3.93 12.87L3.93 12.87Q3.93 13.90 4.26 14.53L4.26 14.53L4.26 14.53Q4.58 15.16 5.11 15.27L5.11 15.27L5.11 15.27Q5.71 15.13 6.64 14.50L6.64 14.50L6.64 14.50Q7.56 13.87 8.65 12.87L8.65 12.87L8.65 12.87Q8.79 13.01 8.82 13.16L8.82 13.16L8.82 13.16Q8.41 13.69 7.98 14.18L7.98 14.18L7.98 14.18Q7.55 14.67 7.12 15.08L7.12 15.08L7.12 15.08Q6.69 15.48 6.28 15.79L6.28 15.79L6.28 15.79Q5.87 16.10 5.52 16.27L5.52 16.27L5.52 16.27Q3.78 16.24 2.88 15.27L2.88 15.27L2.88 15.27Q1.99 14.31 1.99 12.43ZM23.32 4.98L23.32 4.98L23.32 4.98Q23.59 5.10 23.87 5.27L23.87 5.27L23.87 5.27Q24.15 5.45 24.39 5.63L24.39 5.63L24.39 5.63Q24.63 5.81 24.79 5.98L24.79 5.98L24.79 5.98Q24.95 6.16 24.96 6.27L24.96 6.27L24.96 6.27Q24.72 6.22 24.49 6.20L24.49 6.20L24.49 6.20Q24.25 6.17 24.05 6.17L24.05 6.17L24.05 6.17Q23.42 6.17 22.80 6.48L22.80 6.48L22.80 6.48Q22.18 6.79 21.62 7.32L21.62 7.32L21.62 7.32Q21.06 7.85 20.58 8.57L20.58 8.57L20.58 8.57Q20.10 9.28 19.76 10.09L19.76 10.09L19.76 10.09Q19.42 10.91 19.22 11.77L19.22 11.77L19.22 11.77Q19.03 12.64 19.03 13.48L19.03 13.48L19.03 13.48Q19.03 14.57 19.39 15.11L19.39 15.11L19.39 15.11Q19.75 15.64 20.45 15.64L20.45 15.64L20.45 15.64Q20.79 15.64 21.18 15.51L21.18 15.51L21.18 15.51Q21.57 15.37 21.98 15.13L21.98 15.13L21.98 15.13Q22.39 14.90 22.78 14.56L22.78 14.56L22.78 14.56Q23.17 14.22 23.51 13.82L23.51 13.82L23.51 13.82Q24.00 13.23 24.39 12.48L24.39 12.48L24.39 12.48Q24.78 11.73 25.05 10.89L25.05 10.89L25.05 10.89Q25.33 10.05 25.47 9.16L25.47 9.16L25.47 9.16Q25.62 8.27 25.62 7.42L25.62 7.42L25.62 7.42Q25.62 7.08 25.61 6.85L25.61 6.85L25.61 6.85Q25.59 6.62 25.57 6.46L25.57 6.46L25.57 6.46Q25.55 6.30 25.54 6.20L25.54 6.20L25.54 6.20Q25.52 6.10 25.51 6.03L25.51 6.03L25.51 6.03Q25.68 6.12 25.88 6.24L25.88 6.24L25.88 6.24Q26.08 6.36 26.26 6.59L26.26 6.59L26.26 6.59Q26.43 6.82 26.55 7.20L26.55 7.20L26.55 7.20Q26.67 7.57 26.67 8.18L26.67 8.18L26.67 8.18Q26.67 9.16 26.44 10.10L26.44 10.10L26.44 10.10Q26.21 11.05 25.80 11.90L25.80 11.90L25.80 11.90Q25.38 12.75 24.82 13.50L24.82 13.50L24.82 13.50Q24.26 14.24 23.62 14.80L23.62 14.80L23.62 14.80Q22.78 15.54 21.83 15.95L21.83 15.95L21.83 15.95Q20.87 16.35 19.99 16.35L19.99 16.35L19.99 16.35Q18.70 16.35 18.02 15.53L18.02 15.53L18.02 15.53Q17.35 14.71 17.35 13.12L17.35 13.12L17.35 13.12Q17.35 12.26 17.54 11.31L17.54 11.31L17.54 11.31Q17.72 10.36 18.07 9.44L18.07 9.44L18.07 9.44Q18.41 8.51 18.89 7.68L18.89 7.68L18.89 7.68Q19.36 6.85 19.93 6.21L19.93 6.21L19.93 6.21Q20.50 5.57 21.15 5.19L21.15 5.19L21.15 5.19Q21.80 4.82 22.48 4.82L22.48 4.82L22.48 4.82Q22.71 4.82 22.90 4.85L22.90 4.85L22.90 4.85Q23.10 4.89 23.32 4.98ZM39.77 16.21L39.77 16.21L39.77 16.21Q39.75 16.23 39.72 16.23L39.72 16.23L39.72 16.23Q39.69 16.23 39.61 16.23L39.61 16.23L39.61 16.23Q39.41 16.23 39.15 16.16L39.15 16.16L39.15 16.16Q38.89 16.10 38.65 16.01L38.65 16.01L38.65 16.01Q38.40 15.92 38.23 15.81L38.23 15.81L38.23 15.81Q38.05 15.69 38.01 15.61L38.01 15.61L38.01 15.61Q38.00 15.41 38.00 15.20L38.00 15.20L38.00 15.20Q38.00 14.99 38.00 14.80L38.00 14.80L38.00 14.80Q38.00 13.23 38.23 11.52L38.23 11.52L38.23 11.52Q38.46 9.81 38.99 7.83L38.99 7.83L38.99 7.83Q39.05 7.63 39.11 7.33L39.11 7.33L39.11 7.33Q39.17 7.03 39.24 6.68L39.24 6.68L39.24 6.68Q38.91 6.94 38.44 7.53L38.44 7.53L38.44 7.53Q37.98 8.11 37.47 8.90L37.47 8.90L37.47 8.90Q36.96 9.69 36.45 10.63L36.45 10.63L36.45 10.63Q35.94 11.58 35.52 12.55L35.52 12.55L35.52 12.55Q35.10 13.52 34.80 14.48L34.80 14.48L34.80 14.48Q34.50 15.43 34.43 16.24L34.43 16.24L34.43 16.24Q33.75 16.04 33.50 15.85L33.50 15.85L33.50 15.85Q33.24 15.65 33.24 15.37L33.24 15.37L33.24 15.37Q33.24 15.12 33.39 14.66L33.39 14.66L33.39 14.66Q33.54 14.20 33.82 13.57L33.82 13.57L33.82 13.57Q34.10 12.94 34.51 12.16L34.51 12.16L34.51 12.16Q34.92 11.38 35.41 10.49L35.41 10.49L35.41 10.49Q35.97 9.46 36.51 8.57L36.51 8.57L36.51 8.57Q37.04 7.67 37.56 6.94L37.56 6.94L37.56 6.94Q38.08 6.22 38.58 5.68L38.58 5.68L38.58 5.68Q39.07 5.15 39.56 4.87L39.56 4.87L39.56 4.87Q39.76 4.87 40.09 4.97L40.09 4.97L40.09 4.97Q40.42 5.07 40.73 5.21L40.73 5.21L40.73 5.21Q41.05 5.35 41.29 5.49L41.29 5.49L41.29 5.49Q41.54 5.64 41.57 5.74L41.57 5.74L41.57 5.74Q41.37 6.13 41.10 6.92L41.10 6.92L41.10 6.92Q40.84 7.70 40.57 8.69L40.57 8.69L40.57 8.69Q40.29 9.69 40.05 10.80L40.05 10.80L40.05 10.80Q39.80 11.91 39.66 12.94L39.66 12.94L39.66 12.94Q39.98 12.17 40.41 11.33L40.41 11.33L40.41 11.33Q40.84 10.50 41.31 9.68L41.31 9.68L41.31 9.68Q41.79 8.86 42.29 8.09L42.29 8.09L42.29 8.09Q42.78 7.32 43.26 6.69L43.26 6.69L43.26 6.69Q43.74 6.05 44.15 5.57L44.15 5.57L44.15 5.57Q44.56 5.10 44.88 4.87L44.88 4.87L44.88 4.87Q45.08 4.87 45.41 4.97L45.41 4.97L45.41 4.97Q45.74 5.07 46.05 5.21L46.05 5.21L46.05 5.21Q46.37 5.35 46.61 5.49L46.61 5.49L46.61 5.49Q46.86 5.64 46.89 5.74L46.89 5.74L46.89 5.74Q46.44 6.54 46.10 7.69L46.10 7.69L46.10 7.69Q45.77 8.83 45.54 10.09L45.54 10.09L45.54 10.09Q45.30 11.35 45.19 12.59L45.19 12.59L45.19 12.59Q45.07 13.83 45.07 14.81L45.07 14.81L45.07 14.81Q45.07 15.13 45.07 15.48L45.07 15.48L45.07 15.48Q45.07 15.83 45.09 16.21L45.09 16.21L45.09 16.21Q44.90 16.21 44.63 16.16L44.63 16.16L44.63 16.16Q44.35 16.11 44.09 16.03L44.09 16.03L44.09 16.03Q43.83 15.95 43.62 15.84L43.62 15.84L43.62 15.84Q43.41 15.74 43.33 15.61L43.33 15.61L43.33 15.61Q43.32 15.41 43.32 15.20L43.32 15.20L43.32 15.20Q43.32 14.99 43.32 14.80L43.32 14.80L43.32 14.80Q43.32 13.23 43.55 11.52L43.55 11.52L43.55 11.52Q43.78 9.81 44.31 7.83L44.31 7.83L44.31 7.83Q44.37 7.63 44.44 7.29L44.44 7.29L44.44 7.29Q44.51 6.96 44.58 6.59L44.58 6.59L44.58 6.59Q44.18 6.79 43.69 7.34L43.69 7.34L43.69 7.34Q43.19 7.90 42.68 8.69L42.68 8.69L42.68 8.69Q42.17 9.48 41.67 10.44L41.67 10.44L41.67 10.44Q41.17 11.41 40.78 12.41L40.78 12.41L40.78 12.41Q40.38 13.41 40.10 14.40L40.10 14.40L40.10 14.40Q39.83 15.39 39.77 16.21ZM63.71 7.63L63.71 7.63L63.71 7.63Q63.71 8.40 63.33 9.10L63.33 9.10L63.33 9.10Q62.94 9.80 62.29 10.32L62.29 10.32L62.29 10.32Q61.64 10.85 60.77 11.16L60.77 11.16L60.77 11.16Q59.89 11.47 58.91 11.47L58.91 11.47L58.91 11.47Q58.56 11.47 58.36 11.38L58.36 11.38L58.36 11.38Q58.16 11.28 57.90 11.02L57.90 11.02L57.90 11.02Q57.20 12.54 56.76 13.82L56.76 13.82L56.76 13.82Q56.32 15.11 56.07 16.31L56.07 16.31L56.07 16.31Q55.54 16.18 55.20 15.87L55.20 15.87L55.20 15.87Q54.87 15.55 54.59 15.08L54.59 15.08L54.59 15.08Q54.73 14.81 54.92 14.38L54.92 14.38L54.92 14.38Q55.12 13.94 55.40 13.31L55.40 13.31L55.40 13.31Q55.68 12.67 56.05 11.78L56.05 11.78L56.05 11.78Q56.42 10.89 56.92 9.70L56.92 9.70L56.92 9.70Q57.15 9.16 57.32 8.75L57.32 8.75L57.32 8.75Q57.48 8.34 57.61 7.99L57.61 7.99L57.61 7.99Q57.74 7.63 57.84 7.28L57.84 7.28L57.84 7.28Q57.95 6.93 58.06 6.51L58.06 6.51L58.06 6.51Q57.40 6.72 56.85 7L56.85 7L56.85 7Q56.29 7.28 55.93 7.59L55.93 7.59L55.93 7.59Q55.80 7.50 55.67 7.34L55.67 7.34L55.67 7.34Q55.54 7.17 55.43 6.96L55.43 6.96L55.43 6.96Q55.31 6.76 55.23 6.55L55.23 6.55L55.23 6.55Q55.15 6.34 55.13 6.17L55.13 6.17L55.13 6.17Q55.54 5.89 56.14 5.66L56.14 5.66L56.14 5.66Q56.74 5.42 57.43 5.24L57.43 5.24L57.43 5.24Q58.11 5.07 58.85 4.97L58.85 4.97L58.85 4.97Q59.58 4.87 60.26 4.87L60.26 4.87L60.26 4.87Q61.05 4.87 61.70 5.07L61.70 5.07L61.70 5.07Q62.34 5.28 62.79 5.64L62.79 5.64L62.79 5.64Q63.24 6.01 63.48 6.51L63.48 6.51L63.48 6.51Q63.71 7.01 63.71 7.63ZM61.22 5.95L61.22 5.95L61.22 5.95Q60.69 5.95 60.13 6.03L60.13 6.03L60.30 6.29L60.30 6.29Q60.16 6.47 59.95 6.83L59.95 6.83L59.95 6.83Q59.74 7.20 59.49 7.71L59.49 7.71L59.49 7.71Q59.23 8.22 58.93 8.85L58.93 8.85L58.93 8.85Q58.63 9.48 58.30 10.18L58.30 10.18L58.30 10.18Q59.39 10.18 60.28 9.97L60.28 9.97L60.28 9.97Q61.18 9.77 61.82 9.41L61.82 9.41L61.82 9.41Q62.45 9.06 62.81 8.58L62.81 8.58L62.81 8.58Q63.17 8.11 63.17 7.56L63.17 7.56L63.17 7.56Q63.17 6.83 62.68 6.39L62.68 6.39L62.68 6.39Q62.19 5.95 61.22 5.95ZM70.80 16.24L70.80 16.24L70.80 16.24Q70.13 16.04 69.87 15.85L69.87 15.85L69.87 15.85Q69.61 15.65 69.61 15.36L69.61 15.36L69.61 15.36Q69.61 15.13 69.73 14.73L69.73 14.73L69.73 14.73Q69.86 14.32 70.11 13.77L70.11 13.77L70.11 13.77Q70.35 13.22 70.69 12.54L70.69 12.54L70.69 12.54Q71.04 11.87 71.47 11.10L71.47 11.10L71.47 11.10Q71.11 11.09 70.82 11.08L70.82 11.08L70.82 11.08Q70.53 11.07 70.35 11.07L70.35 11.07L70.35 11.07Q70.43 10.86 70.83 10.71L70.83 10.71L70.83 10.71Q71.22 10.56 71.86 10.44L71.86 10.44L71.86 10.44Q72.41 9.53 73.03 8.71L73.03 8.71L73.03 8.71Q73.65 7.88 74.28 7.19L74.28 7.19L74.28 7.19Q74.91 6.50 75.54 5.97L75.54 5.97L75.54 5.97Q76.17 5.45 76.75 5.14L76.75 5.14L76.75 5.14Q76.76 5.04 76.77 4.97L76.77 4.97L76.77 4.97Q76.78 4.90 76.78 4.87L76.78 4.87L76.78 4.87Q76.97 4.87 77.30 4.97L77.30 4.97L77.30 4.97Q77.63 5.07 77.95 5.21L77.95 5.21L77.95 5.21Q78.26 5.35 78.51 5.49L78.51 5.49L78.51 5.49Q78.75 5.64 78.78 5.74L78.78 5.74L78.78 5.74Q78.32 6.55 77.87 8.17L77.87 8.17L77.87 8.17Q77.42 9.79 77.13 12.04L77.13 12.04L77.13 12.04Q77.06 12.60 77.01 13.31L77.01 13.31L77.01 13.31Q76.96 14.03 76.96 14.91L76.96 14.91L76.96 14.91Q76.96 15.22 76.96 15.54L76.96 15.54L76.96 15.54Q76.96 15.86 76.99 16.21L76.99 16.21L76.99 16.21Q76.96 16.23 76.93 16.23L76.93 16.23L76.93 16.23Q76.90 16.23 76.82 16.23L76.82 16.23L76.82 16.23Q76.62 16.23 76.36 16.16L76.36 16.16L76.36 16.16Q76.10 16.10 75.86 16.01L75.86 16.01L75.86 16.01Q75.61 15.92 75.44 15.81L75.44 15.81L75.44 15.81Q75.26 15.69 75.22 15.61L75.22 15.61L75.22 15.61Q75.21 15.43 75.21 15.25L75.21 15.25L75.21 15.25Q75.21 15.08 75.21 14.88L75.21 14.88L75.21 14.88Q75.21 14.01 75.27 13.12L75.27 13.12L75.27 13.12Q75.33 12.22 75.49 11.27L75.49 11.27L75.49 11.27Q75.29 11.26 74.97 11.23L74.97 11.23L74.97 11.23Q74.65 11.21 74.25 11.20L74.25 11.20L74.25 11.20Q73.85 11.19 73.40 11.16L73.40 11.16L73.40 11.16Q72.94 11.14 72.51 11.13L72.51 11.13L72.51 11.13Q72.17 11.76 71.88 12.38L71.88 12.38L71.88 12.38Q71.58 13.01 71.37 13.64L71.37 13.64L71.37 13.64Q71.13 14.31 70.99 14.98L70.99 14.98L70.99 14.98Q70.84 15.65 70.80 16.24ZM76.20 7.83L76.20 7.83L76.20 7.83Q76.26 7.63 76.34 7.29L76.34 7.29L76.34 7.29Q76.41 6.94 76.48 6.57L76.48 6.57L76.48 6.57Q76.13 6.69 75.71 7.03L75.71 7.03L75.71 7.03Q75.28 7.36 74.82 7.86L74.82 7.86L74.82 7.86Q74.37 8.36 73.90 8.98L73.90 8.98L73.90 8.98Q73.43 9.60 73.00 10.30L73.00 10.30L73.00 10.30Q74.17 10.21 75.67 10.18L75.67 10.18L75.67 10.18Q75.78 9.59 75.92 9.01L75.92 9.01L75.92 9.01Q76.05 8.43 76.20 7.83ZM87.40 16.24L87.40 16.24L87.40 16.24Q86.60 16.00 86.32 15.79L86.32 15.79L86.32 15.79Q86.04 15.57 86.04 15.19L86.04 15.19L86.04 15.19Q86.04 14.77 86.24 14.01L86.24 14.01L86.24 14.01Q86.44 13.24 86.75 12.31L86.75 12.31L86.75 12.31Q87.07 11.37 87.47 10.35L87.47 10.35L87.47 10.35Q87.88 9.32 88.30 8.39L88.30 8.39L88.30 8.39Q88.72 7.45 89.12 6.67L89.12 6.67L89.12 6.67Q89.52 5.89 89.82 5.46L89.82 5.46L89.73 4.87L89.73 4.87Q89.92 4.87 90.27 4.97L90.27 4.97L90.27 4.97Q90.62 5.07 90.98 5.21L90.98 5.21L90.98 5.21Q91.34 5.35 91.61 5.49L91.61 5.49L91.61 5.49Q91.88 5.64 91.91 5.74L91.91 5.74L91.91 5.74Q91.84 6.08 91.80 6.76L91.80 6.76L91.80 6.76Q91.76 7.43 91.76 8.20L91.76 8.20L91.76 8.20Q91.76 9.73 91.88 11.19L91.88 11.19L91.88 11.19Q91.99 12.66 92.43 14.17L92.43 14.17L92.43 14.17Q92.65 13.05 92.91 11.94L92.91 11.94L92.91 11.94Q93.17 10.82 93.45 9.81L93.45 9.81L93.45 9.81Q93.73 8.79 94.01 7.92L94.01 7.92L94.01 7.92Q94.29 7.06 94.55 6.40L94.55 6.40L94.55 6.40Q94.81 5.75 95.03 5.38L95.03 5.38L95.03 5.38Q95.26 5.01 95.44 4.98L95.44 4.98L95.44 4.98Q95.59 5.01 95.77 5.10L95.77 5.10L95.77 5.10Q95.96 5.19 96.12 5.32L96.12 5.32L96.12 5.32Q96.29 5.45 96.43 5.60L96.43 5.60L96.43 5.60Q96.57 5.75 96.66 5.91L96.66 5.91L96.66 5.91Q96.21 6.09 95.77 6.76L95.77 6.76L95.77 6.76Q95.33 7.43 94.93 8.39L94.93 8.39L94.93 8.39Q94.53 9.35 94.19 10.47L94.19 10.47L94.19 10.47Q93.84 11.59 93.58 12.68L93.58 12.68L93.58 12.68Q93.32 13.76 93.18 14.69L93.18 14.69L93.18 14.69Q93.03 15.61 93.02 16.17L93.02 16.17L93.02 16.17Q93.02 16.20 93.03 16.21L93.03 16.21L93.03 16.21Q92.99 16.23 92.94 16.23L92.94 16.23L92.94 16.23Q92.89 16.23 92.85 16.23L92.85 16.23L92.85 16.23Q92.20 16.23 91.71 16.07L91.71 16.07L91.71 16.07Q91.21 15.90 91.06 15.61L91.06 15.61L91.06 15.61Q90.76 14.43 90.57 13.34L90.57 13.34L90.57 13.34Q90.37 12.25 90.24 11.16L90.24 11.16L90.24 11.16Q90.10 10.07 90.03 8.95L90.03 8.95L90.03 8.95Q89.95 7.84 89.91 6.62L89.91 6.62L89.91 6.62Q89.64 7.04 89.35 7.72L89.35 7.72L89.35 7.72Q89.05 8.40 88.77 9.21L88.77 9.21L88.77 9.21Q88.49 10.02 88.23 10.92L88.23 10.92L88.23 10.92Q87.98 11.82 87.78 12.67L87.78 12.67L87.78 12.67Q87.58 13.52 87.47 14.29L87.47 14.29L87.47 14.29Q87.36 15.05 87.36 15.61L87.36 15.61L87.36 15.61Q87.36 15.90 87.37 16.03L87.37 16.03L87.37 16.03Q87.37 16.16 87.40 16.24ZM107.88 10.35L107.88 10.35L107.88 10.35Q108.93 9.20 109.77 7.91L109.77 7.91L109.77 7.91Q110.60 6.62 111.31 5.01L111.31 5.01L111.31 5.01Q111.68 5.05 112.01 5.21L112.01 5.21L112.01 5.21Q112.35 5.36 112.55 5.56L112.55 5.56L112.55 5.56Q111.78 6.48 111.15 7.24L111.15 7.24L111.15 7.24Q110.53 7.99 110.01 8.66L110.01 8.66L110.01 8.66Q109.49 9.32 109.05 9.93L109.05 9.93L109.05 9.93Q108.61 10.54 108.19 11.16L108.19 11.16L108.19 11.16Q107.98 11.87 107.80 12.60L107.80 12.60L107.80 12.60Q107.62 13.33 107.48 13.99L107.48 13.99L107.48 13.99Q107.34 14.66 107.26 15.22L107.26 15.22L107.26 15.22Q107.18 15.79 107.18 16.20L107.18 16.20L107.18 16.20Q107.03 16.20 106.69 16.14L106.69 16.14L106.69 16.14Q106.36 16.07 106.01 15.99L106.01 15.99L106.01 15.99Q105.66 15.90 105.37 15.82L105.37 15.82L105.37 15.82Q105.08 15.74 105.03 15.68L105.03 15.68L105.03 15.68Q105.25 15.30 105.47 14.75L105.47 14.75L105.47 14.75Q105.69 14.20 105.90 13.59L105.90 13.59L105.90 13.59Q106.11 12.98 106.30 12.36L106.30 12.36L106.30 12.36Q106.50 11.73 106.67 11.20L106.67 11.20L106.67 11.20Q106.32 10.11 105.99 9.15L105.99 9.15L105.99 9.15Q105.66 8.19 105.35 7.41L105.35 7.41L105.35 7.41Q105.04 6.64 104.76 6.08L104.76 6.08L104.76 6.08Q104.48 5.52 104.23 5.22L104.23 5.22L104.23 5.22Q104.37 5.17 104.66 5.11L104.66 5.11L104.66 5.11Q104.94 5.05 105.29 5.00L105.29 5.00L105.29 5.00Q105.63 4.94 105.99 4.91L105.99 4.91L105.99 4.91Q106.34 4.87 106.62 4.86L106.62 4.86L106.62 4.86Q106.62 5.21 106.69 5.71L106.69 5.71L106.69 5.71Q106.75 6.22 106.86 6.79L106.86 6.79L106.86 6.79Q106.96 7.36 107.10 7.95L107.10 7.95L107.10 7.95Q107.24 8.54 107.38 9.03L107.38 9.03L107.38 9.03Q107.52 9.52 107.65 9.88L107.65 9.88L107.65 9.88Q107.79 10.23 107.88 10.35ZM135.09 4.98L135.09 4.98L135.09 4.98Q135.35 5.10 135.63 5.27L135.63 5.27L135.63 5.27Q135.91 5.45 136.15 5.63L136.15 5.63L136.15 5.63Q136.39 5.81 136.55 5.98L136.55 5.98L136.55 5.98Q136.71 6.16 136.72 6.27L136.72 6.27L136.72 6.27Q136.49 6.22 136.25 6.20L136.25 6.20L136.25 6.20Q136.01 6.17 135.81 6.17L135.81 6.17L135.81 6.17Q135.18 6.17 134.56 6.48L134.56 6.48L134.56 6.48Q133.94 6.79 133.38 7.32L133.38 7.32L133.38 7.32Q132.82 7.85 132.34 8.57L132.34 8.57L132.34 8.57Q131.87 9.28 131.52 10.09L131.52 10.09L131.52 10.09Q131.18 10.91 130.98 11.77L130.98 11.77L130.98 11.77Q130.79 12.64 130.79 13.48L130.79 13.48L130.79 13.48Q130.79 14.57 131.15 15.11L131.15 15.11L131.15 15.11Q131.52 15.64 132.22 15.64L132.22 15.64L132.22 15.64Q132.55 15.64 132.94 15.51L132.94 15.51L132.94 15.51Q133.34 15.37 133.74 15.13L133.74 15.13L133.74 15.13Q134.15 14.90 134.54 14.56L134.54 14.56L134.54 14.56Q134.93 14.22 135.27 13.82L135.27 13.82L135.27 13.82Q135.76 13.23 136.15 12.48L136.15 12.48L136.15 12.48Q136.54 11.73 136.81 10.89L136.81 10.89L136.81 10.89Q137.09 10.05 137.23 9.16L137.23 9.16L137.23 9.16Q137.38 8.27 137.38 7.42L137.38 7.42L137.38 7.42Q137.38 7.08 137.37 6.85L137.37 6.85L137.37 6.85Q137.35 6.62 137.33 6.46L137.33 6.46L137.33 6.46Q137.31 6.30 137.30 6.20L137.30 6.20L137.30 6.20Q137.28 6.10 137.27 6.03L137.27 6.03L137.27 6.03Q137.44 6.12 137.64 6.24L137.64 6.24L137.64 6.24Q137.84 6.36 138.02 6.59L138.02 6.59L138.02 6.59Q138.19 6.82 138.31 7.20L138.31 7.20L138.31 7.20Q138.43 7.57 138.43 8.18L138.43 8.18L138.43 8.18Q138.43 9.16 138.20 10.10L138.20 10.10L138.20 10.10Q137.97 11.05 137.56 11.90L137.56 11.90L137.56 11.90Q137.14 12.75 136.58 13.50L136.58 13.50L136.58 13.50Q136.02 14.24 135.38 14.80L135.38 14.80L135.38 14.80Q134.54 15.54 133.59 15.95L133.59 15.95L133.59 15.95Q132.64 16.35 131.75 16.35L131.75 16.35L131.75 16.35Q130.47 16.35 129.79 15.53L129.79 15.53L129.79 15.53Q129.11 14.71 129.11 13.12L129.11 13.12L129.11 13.12Q129.11 12.26 129.30 11.31L129.30 11.31L129.30 11.31Q129.49 10.36 129.83 9.44L129.83 9.44L129.83 9.44Q130.17 8.51 130.65 7.68L130.65 7.68L130.65 7.68Q131.12 6.85 131.69 6.21L131.69 6.21L131.69 6.21Q132.26 5.57 132.91 5.19L132.91 5.19L132.91 5.19Q133.56 4.82 134.25 4.82L134.25 4.82L134.25 4.82Q134.47 4.82 134.67 4.85L134.67 4.85L134.67 4.85Q134.86 4.89 135.09 4.98ZM151.62 9.34L151.62 9.34L151.62 9.34Q152.07 9.34 152.33 9.59L152.33 9.59L152.33 9.59Q152.59 9.84 152.59 10.29L152.59 10.29L152.59 10.29Q152.59 10.40 152.57 10.52L152.57 10.52L152.57 10.52Q152.56 10.64 152.52 10.72L152.52 10.72L152.52 10.72Q152.33 10.70 152.11 10.68L152.11 10.68L152.11 10.68Q151.89 10.65 151.58 10.65L151.58 10.65L151.58 10.65Q150.95 10.65 150.32 10.77L150.32 10.77L150.32 10.77Q149.69 10.88 149.11 10.95L149.11 10.95L149.11 10.95Q148.48 12.43 148.08 13.73L148.08 13.73L148.08 13.73Q147.67 15.04 147.45 16.31L147.45 16.31L147.45 16.31Q146.97 16.20 146.61 15.90L146.61 15.90L146.61 15.90Q146.24 15.61 145.92 15.08L145.92 15.08L145.92 15.08Q146.02 14.85 146.16 14.54L146.16 14.54L146.16 14.54Q146.30 14.22 146.50 13.74L146.50 13.74L146.50 13.74Q146.69 13.26 146.96 12.56L146.96 12.56L146.96 12.56Q147.24 11.87 147.62 10.91L147.62 10.91L147.62 10.91Q147.03 10.71 146.85 10.22L146.85 10.22L146.85 10.22Q146.92 10.15 147.24 10.06L147.24 10.06L147.24 10.06Q147.56 9.97 148.02 9.86L148.02 9.86L148.02 9.86Q148.23 9.31 148.39 8.88L148.39 8.88L148.39 8.88Q148.54 8.46 148.67 8.07L148.67 8.07L148.67 8.07Q148.79 7.69 148.90 7.32L148.90 7.32L148.90 7.32Q149.00 6.94 149.09 6.52L149.09 6.52L149.02 6.52L149.02 6.52Q148.48 6.52 148.15 6.27L148.15 6.27L148.15 6.27Q147.83 6.02 147.83 5.61L147.83 5.61L147.83 5.61Q147.83 5.50 147.86 5.35L147.86 5.35L147.86 5.35Q147.90 5.19 147.95 5.08L147.95 5.08L147.95 5.08Q148.22 5.12 148.48 5.14L148.48 5.14L148.48 5.14Q148.74 5.15 149.16 5.15L149.16 5.15L149.16 5.15Q150.04 5.15 150.81 5.10L150.81 5.10L150.81 5.10Q151.58 5.05 152.20 5.00L152.20 5.00L152.20 5.00Q152.82 4.94 153.27 4.89L153.27 4.89L153.27 4.89Q153.72 4.84 153.96 4.84L153.96 4.84L153.96 4.84Q154.28 4.84 154.53 5.18L154.53 5.18L154.53 5.18Q154.78 5.52 154.92 6.13L154.92 6.13L154.92 6.13Q154.48 6.09 154.20 6.08L154.20 6.08L154.20 6.08Q153.93 6.06 153.72 6.06L153.72 6.06L153.72 6.06Q153.01 6.06 152.41 6.13L152.41 6.13L152.41 6.13Q151.82 6.19 151.28 6.27L151.28 6.27L151.28 6.27Q151.20 6.40 151.09 6.59L151.09 6.59L151.09 6.59Q150.99 6.79 150.82 7.15L150.82 7.15L150.82 7.15Q150.65 7.50 150.39 8.08L150.39 8.08L150.39 8.08Q150.14 8.65 149.74 9.53L149.74 9.53L149.74 9.53Q150.29 9.45 150.79 9.39L150.79 9.39L150.79 9.39Q151.28 9.34 151.62 9.34ZM179.93 5.74L179.93 5.74L179.93 5.74Q179.97 5.98 179.99 6.07L179.99 6.07L179.99 6.07Q180.01 6.16 180.01 6.31L180.01 6.31L180.01 6.31Q180.01 6.78 179.81 7.18L179.81 7.18L179.81 7.18Q179.61 7.57 179.26 7.74L179.26 7.74L179.26 7.74Q178.98 7.36 178.57 7.09L178.57 7.09L178.57 7.09Q178.16 6.82 177.68 6.64L177.68 6.64L177.68 6.64Q177.20 6.47 176.68 6.38L176.68 6.38L176.68 6.38Q176.16 6.30 175.67 6.30L175.67 6.30L175.67 6.30Q175.18 6.30 174.75 6.38L174.75 6.38L174.75 6.38Q174.33 6.45 174.00 6.59L174.00 6.59L174.00 6.59Q173.67 6.72 173.48 6.92L173.48 6.92L173.48 6.92Q173.29 7.11 173.29 7.36L173.29 7.36L173.29 7.36Q173.33 7.67 173.67 7.99L173.67 7.99L173.67 7.99Q174.01 8.30 174.50 8.60L174.50 8.60L174.50 8.60Q174.99 8.90 175.58 9.20L175.58 9.20L175.58 9.20Q176.18 9.49 176.75 9.76L176.75 9.76L176.75 9.76Q177.46 10.09 177.98 10.38L177.98 10.38L177.98 10.38Q178.50 10.67 178.84 11.01L178.84 11.01L178.84 11.01Q179.17 11.35 179.34 11.79L179.34 11.79L179.34 11.79Q179.51 12.22 179.51 12.84L179.51 12.84L179.51 12.84Q179.51 13.55 179.27 14.18L179.27 14.18L179.27 14.18Q179.03 14.80 178.58 15.26L178.58 15.26L178.58 15.26Q178.12 15.72 177.48 15.98L177.48 15.98L177.48 15.98Q176.83 16.24 176.04 16.24L176.04 16.24L176.04 16.24Q175.25 16.24 174.34 16.00L174.34 16.00L174.34 16.00Q173.43 15.76 172.64 15.35L172.64 15.35L172.64 15.35Q171.85 14.94 171.32 14.40L171.32 14.40L171.32 14.40Q170.80 13.86 170.80 13.26L170.80 13.26L170.80 13.26Q170.80 12.98 170.96 12.54L170.96 12.54L170.96 12.54Q171.12 12.11 171.54 11.63L171.54 11.63L171.54 11.63Q171.58 12.05 172.00 12.63L172.00 12.63L172.00 12.63Q172.41 13.20 173.24 13.69L173.24 13.69L173.24 13.69Q174.01 14.14 174.82 14.34L174.82 14.34L174.82 14.34Q175.64 14.55 176.36 14.55L176.36 14.55L176.36 14.55Q177.14 14.55 177.63 14.35L177.63 14.35L177.63 14.35Q178.12 14.15 178.40 13.88L178.40 13.88L178.40 13.88Q178.68 13.61 178.79 13.33L178.79 13.33L178.79 13.33Q178.91 13.05 178.92 12.88L178.92 12.88L178.92 12.88Q178.91 12.60 178.66 12.34L178.66 12.34L178.66 12.34Q178.42 12.08 178.00 11.84L178.00 11.84L178.00 11.84Q177.59 11.59 177.04 11.34L177.04 11.34L177.04 11.34Q176.50 11.09 175.91 10.84L175.91 10.84L175.91 10.84Q175.03 10.44 174.39 10.10L174.39 10.10L174.39 10.10Q173.75 9.76 173.34 9.40L173.34 9.40L173.34 9.40Q172.93 9.04 172.74 8.65L172.74 8.65L172.74 8.65Q172.55 8.26 172.55 7.76L172.55 7.76L172.55 7.76Q172.55 6.97 173.03 6.27L173.03 6.27L173.03 6.27Q173.50 5.57 174.40 5.21L174.40 5.21L174.40 5.21Q174.85 5.01 175.36 4.93L175.36 4.93L175.36 4.93Q175.87 4.84 176.36 4.84L176.36 4.84L176.36 4.84Q177.28 4.84 178.16 5.10L178.16 5.10L178.16 5.10Q179.05 5.35 179.93 5.74ZM188.05 14.38L188.05 14.38L188.05 14.38Q188.05 13.87 188.21 13.07L188.21 13.07L188.21 13.07Q188.37 12.26 188.63 11.33L188.63 11.33L188.63 11.33Q188.89 10.40 189.22 9.43L189.22 9.43L189.22 9.43Q189.56 8.46 189.91 7.60L189.91 7.60L189.91 7.60Q190.26 6.75 190.60 6.10L190.60 6.10L190.60 6.10Q190.93 5.46 191.20 5.18L191.20 5.18L191.20 5.18Q191.34 5.19 191.57 5.29L191.57 5.29L191.57 5.29Q191.80 5.38 192.04 5.50L192.04 5.50L192.04 5.50Q192.28 5.63 192.47 5.78L192.47 5.78L192.47 5.78Q192.67 5.92 192.72 6.05L192.72 6.05L192.72 6.05Q192.32 6.41 191.92 7.15L191.92 7.15L191.92 7.15Q191.52 7.88 191.15 8.82L191.15 8.82L191.15 8.82Q190.78 9.76 190.46 10.80L190.46 10.80L190.46 10.80Q190.13 11.84 189.90 12.82L189.90 12.82L189.90 12.82Q189.66 13.80 189.52 14.64L189.52 14.64L189.52 14.64Q189.39 15.48 189.39 16.00L189.39 16.00L189.39 16.00Q189.39 16.24 189.43 16.30L189.43 16.30L189.43 16.30Q189.13 16.28 188.99 16.19L188.99 16.19L188.99 16.19Q188.85 16.10 188.77 16.00L188.77 16.00L188.77 16.00Q188.69 15.89 188.63 15.79L188.63 15.79L188.63 15.79Q188.57 15.68 188.44 15.62L188.44 15.62L188.44 15.62Q188.34 15.58 188.27 15.43L188.27 15.43L188.27 15.43Q188.20 15.27 188.15 15.09L188.15 15.09L188.15 15.09Q188.10 14.90 188.08 14.70L188.08 14.70L188.08 14.70Q188.05 14.50 188.05 14.38ZM204.25 14.38L204.25 14.38L204.25 14.38Q204.60 14.98 204.60 15.54L204.60 15.54L204.60 15.54Q204.60 15.67 204.57 15.77L204.57 15.77L204.57 15.77Q204.55 15.88 204.53 15.99L204.53 15.99L204.53 15.99Q204.29 15.96 204.03 15.95L204.03 15.95L204.03 15.95Q203.77 15.93 203.49 15.93L203.49 15.93L203.49 15.93Q203.15 15.93 202.81 15.95L202.81 15.95L202.81 15.95Q202.47 15.97 202.05 16.02L202.05 16.02L202.05 16.02Q201.63 16.06 201.11 16.13L201.11 16.13L201.11 16.13Q200.59 16.20 199.91 16.31L199.91 16.31L199.91 16.31Q199.58 16.20 199.26 15.87L199.26 15.87L199.26 15.87Q198.94 15.54 198.66 15.08L198.66 15.08L198.66 15.08Q198.80 14.77 199.01 14.31L199.01 14.31L199.01 14.31Q199.22 13.86 199.50 13.21L199.50 13.21L199.50 13.21Q199.78 12.56 200.12 11.68L200.12 11.68L200.12 11.68Q200.47 10.81 200.86 9.66L200.86 9.66L200.86 9.66Q201.11 8.90 201.29 8.33L201.29 8.33L201.29 8.33Q201.47 7.76 201.62 7.22L201.62 7.22L201.62 7.22Q201.77 6.68 201.91 6.09L201.91 6.09L201.91 6.09Q202.05 5.50 202.22 4.73L202.22 4.73L202.22 4.73Q202.78 4.84 203.19 5.14L203.19 5.14L203.19 5.14Q203.60 5.45 203.98 6.01L203.98 6.01L203.98 6.01Q203.87 6.19 203.69 6.59L203.69 6.59L203.69 6.59Q203.50 7 203.26 7.58L203.26 7.58L203.26 7.58Q203.01 8.16 202.72 8.90L202.72 8.90L202.72 8.90Q202.43 9.63 202.10 10.47L202.10 10.47L202.10 10.47Q201.80 11.30 201.50 12.03L201.50 12.03L201.50 12.03Q201.21 12.75 200.98 13.34L200.98 13.34L200.98 13.34Q200.75 13.93 200.61 14.35L200.61 14.35L200.61 14.35Q200.47 14.77 200.47 14.98L200.47 14.98L200.47 14.98Q200.69 14.97 200.87 14.95L200.87 14.95L200.87 14.95Q201.05 14.94 201.25 14.90L201.25 14.90L201.25 14.90Q201.45 14.87 201.68 14.82L201.68 14.82L201.68 14.82Q201.91 14.77 202.23 14.69L202.23 14.69L202.23 14.69Q202.51 14.62 202.75 14.57L202.75 14.57L202.75 14.57Q202.99 14.52 203.22 14.48L203.22 14.48L203.22 14.48Q203.45 14.45 203.69 14.43L203.69 14.43L203.69 14.43Q203.94 14.41 204.25 14.38ZM219.04 4.98L219.04 4.98L219.04 4.98Q219.31 5.10 219.59 5.27L219.59 5.27L219.59 5.27Q219.87 5.45 220.11 5.63L220.11 5.63L220.11 5.63Q220.35 5.81 220.51 5.98L220.51 5.98L220.51 5.98Q220.67 6.16 220.68 6.27L220.68 6.27L220.68 6.27Q220.44 6.22 220.21 6.20L220.21 6.20L220.21 6.20Q219.97 6.17 219.77 6.17L219.77 6.17L219.77 6.17Q219.14 6.17 218.52 6.48L218.52 6.48L218.52 6.48Q217.90 6.79 217.34 7.32L217.34 7.32L217.34 7.32Q216.78 7.85 216.30 8.57L216.30 8.57L216.30 8.57Q215.82 9.28 215.48 10.09L215.48 10.09L215.48 10.09Q215.14 10.91 214.94 11.77L214.94 11.77L214.94 11.77Q214.75 12.64 214.75 13.48L214.75 13.48L214.75 13.48Q214.75 14.57 215.11 15.11L215.11 15.11L215.11 15.11Q215.47 15.64 216.17 15.64L216.17 15.64L216.17 15.64Q216.51 15.64 216.90 15.51L216.90 15.51L216.90 15.51Q217.29 15.37 217.70 15.13L217.70 15.13L217.70 15.13Q218.11 14.90 218.50 14.56L218.50 14.56L218.50 14.56Q218.89 14.22 219.23 13.82L219.23 13.82L219.23 13.82Q219.72 13.23 220.11 12.48L220.11 12.48L220.11 12.48Q220.50 11.73 220.77 10.89L220.77 10.89L220.77 10.89Q221.05 10.05 221.19 9.16L221.19 9.16L221.19 9.16Q221.34 8.27 221.34 7.42L221.34 7.42L221.34 7.42Q221.34 7.08 221.33 6.85L221.33 6.85L221.33 6.85Q221.31 6.62 221.29 6.46L221.29 6.46L221.29 6.46Q221.27 6.30 221.26 6.20L221.26 6.20L221.26 6.20Q221.24 6.10 221.23 6.03L221.23 6.03L221.23 6.03Q221.40 6.12 221.60 6.24L221.60 6.24L221.60 6.24Q221.80 6.36 221.98 6.59L221.98 6.59L221.98 6.59Q222.15 6.82 222.27 7.20L222.27 7.20L222.27 7.20Q222.39 7.57 222.39 8.18L222.39 8.18L222.39 8.18Q222.39 9.16 222.16 10.10L222.16 10.10L222.16 10.10Q221.93 11.05 221.51 11.90L221.51 11.90L221.51 11.90Q221.10 12.75 220.54 13.50L220.54 13.50L220.54 13.50Q219.98 14.24 219.34 14.80L219.34 14.80L219.34 14.80Q218.50 15.54 217.55 15.95L217.55 15.95L217.55 15.95Q216.59 16.35 215.71 16.35L215.71 16.35L215.71 16.35Q214.42 16.35 213.74 15.53L213.74 15.53L213.74 15.53Q213.07 14.71 213.07 13.12L213.07 13.12L213.07 13.12Q213.07 12.26 213.25 11.31L213.25 11.31L213.25 11.31Q213.44 10.36 213.79 9.44L213.79 9.44L213.79 9.44Q214.13 8.51 214.61 7.68L214.61 7.68L214.61 7.68Q215.08 6.85 215.65 6.21L215.65 6.21L215.65 6.21Q216.22 5.57 216.87 5.19L216.87 5.19L216.87 5.19Q217.52 4.82 218.20 4.82L218.20 4.82L218.20 4.82Q218.43 4.82 218.62 4.85L218.62 4.85L218.62 4.85Q218.82 4.89 219.04 4.98ZM232.97 10.74L232.97 10.74L232.97 10.74Q233.84 9.45 234.69 8.37L234.69 8.37L234.69 8.37Q235.54 7.28 236.31 6.50L236.31 6.50L236.31 6.50Q237.08 5.71 237.72 5.28L237.72 5.28L237.72 5.28Q238.36 4.84 238.84 4.84L238.84 4.84L238.84 4.84Q239.02 4.84 239.24 4.98L239.24 4.98L239.24 4.98Q239.46 5.12 239.64 5.35L239.64 5.35L239.64 5.35Q239.83 5.57 239.96 5.83L239.96 5.83L239.96 5.83Q240.09 6.09 240.09 6.33L240.09 6.33L240.09 6.33Q239.22 6.61 238.38 7.06L238.38 7.06L238.38 7.06Q237.55 7.52 236.79 8.11L236.79 8.11L236.79 8.11Q236.03 8.71 235.33 9.44L235.33 9.44L235.33 9.44Q234.64 10.16 234.08 10.99L234.08 10.99L234.08 10.99Q234.30 11.56 234.63 12.21L234.63 12.21L234.63 12.21Q234.96 12.87 235.35 13.47L235.35 13.47L235.35 13.47Q235.75 14.08 236.19 14.60L236.19 14.60L236.19 14.60Q236.64 15.12 237.10 15.43L237.10 15.43L237.10 15.43Q237.03 15.58 236.87 15.72L236.87 15.72L236.87 15.72Q236.70 15.86 236.50 15.98L236.50 15.98L236.50 15.98Q236.31 16.10 236.09 16.17L236.09 16.17L236.09 16.17Q235.87 16.24 235.69 16.24L235.69 16.24L235.69 16.24Q235.33 16.24 235.02 15.90L235.02 15.90L235.02 15.90Q234.71 15.55 234.39 14.86L234.39 14.86L234.39 14.86Q234.08 14.17 233.74 13.14L233.74 13.14L233.74 13.14Q233.39 12.11 232.97 10.74ZM230.86 16.31L230.86 16.31L230.86 16.31Q230.33 16.18 229.98 15.87L229.98 15.87L229.98 15.87Q229.63 15.55 229.33 15.08L229.33 15.08L229.33 15.08Q229.46 14.81 229.63 14.38L229.63 14.38L229.63 14.38Q229.81 13.94 230.06 13.31L230.06 13.31L230.06 13.31Q230.31 12.67 230.66 11.78L230.66 11.78L230.66 11.78Q231.01 10.89 231.48 9.70L231.48 9.70L231.48 9.70Q231.77 8.95 231.96 8.43L231.96 8.43L231.96 8.43Q232.15 7.91 232.28 7.41L232.28 7.41L232.28 7.41Q232.41 6.92 232.54 6.31L232.54 6.31L232.54 6.31Q232.67 5.71 232.83 4.79L232.83 4.79L232.83 4.79Q233.42 4.90 233.90 5.31L233.90 5.31L233.90 5.31Q234.39 5.71 234.74 6.29L234.74 6.29L234.74 6.29Q234.58 6.48 234.38 6.88L234.38 6.88L234.38 6.88Q234.18 7.28 233.93 7.84L233.93 7.84L233.93 7.84Q233.67 8.40 233.37 9.09L233.37 9.09L233.37 9.09Q233.06 9.77 232.72 10.54L232.72 10.54L232.72 10.54Q231.97 12.22 231.53 13.62L231.53 13.62L231.53 13.62Q231.10 15.01 230.86 16.31ZM252.04 4.98L252.04 4.98L252.04 4.98Q252.31 5.10 252.59 5.27L252.59 5.27L252.59 5.27Q252.87 5.45 253.11 5.63L253.11 5.63L253.11 5.63Q253.34 5.81 253.50 5.98L253.50 5.98L253.50 5.98Q253.67 6.16 253.68 6.27L253.68 6.27L253.68 6.27Q253.44 6.22 253.20 6.20L253.20 6.20L253.20 6.20Q252.97 6.17 252.77 6.17L252.77 6.17L252.77 6.17Q252.14 6.17 251.52 6.48L251.52 6.48L251.52 6.48Q250.89 6.79 250.33 7.32L250.33 7.32L250.33 7.32Q249.77 7.85 249.30 8.57L249.30 8.57L249.30 8.57Q248.82 9.28 248.48 10.09L248.48 10.09L248.48 10.09Q248.14 10.91 247.94 11.77L247.94 11.77L247.94 11.77Q247.74 12.64 247.74 13.48L247.74 13.48L247.74 13.48Q247.74 14.57 248.11 15.11L248.11 15.11L248.11 15.11Q248.47 15.64 249.17 15.64L249.17 15.64L249.17 15.64Q249.51 15.64 249.90 15.51L249.90 15.51L249.90 15.51Q250.29 15.37 250.70 15.13L250.70 15.13L250.70 15.13Q251.10 14.90 251.50 14.56L251.50 14.56L251.50 14.56Q251.89 14.22 252.22 13.82L252.22 13.82L252.22 13.82Q252.71 13.23 253.11 12.48L253.11 12.48L253.11 12.48Q253.50 11.73 253.77 10.89L253.77 10.89L253.77 10.89Q254.04 10.05 254.19 9.16L254.19 9.16L254.19 9.16Q254.34 8.27 254.34 7.42L254.34 7.42L254.34 7.42Q254.34 7.08 254.32 6.85L254.32 6.85L254.32 6.85Q254.31 6.62 254.29 6.46L254.29 6.46L254.29 6.46Q254.27 6.30 254.25 6.20L254.25 6.20L254.25 6.20Q254.24 6.10 254.23 6.03L254.23 6.03L254.23 6.03Q254.39 6.12 254.60 6.24L254.60 6.24L254.60 6.24Q254.80 6.36 254.97 6.59L254.97 6.59L254.97 6.59Q255.15 6.82 255.27 7.20L255.27 7.20L255.27 7.20Q255.39 7.57 255.39 8.18L255.39 8.18L255.39 8.18Q255.39 9.16 255.16 10.10L255.16 10.10L255.16 10.10Q254.93 11.05 254.51 11.90L254.51 11.90L254.51 11.90Q254.10 12.75 253.54 13.50L253.54 13.50L253.54 13.50Q252.98 14.24 252.34 14.80L252.34 14.80L252.34 14.80Q251.50 15.54 250.54 15.95L250.54 15.95L250.54 15.95Q249.59 16.35 248.71 16.35L248.71 16.35L248.71 16.35Q247.42 16.35 246.74 15.53L246.74 15.53L246.74 15.53Q246.06 14.71 246.06 13.12L246.06 13.12L246.06 13.12Q246.06 12.26 246.25 11.31L246.25 11.31L246.25 11.31Q246.44 10.36 246.78 9.44L246.78 9.44L246.78 9.44Q247.13 8.51 247.60 7.68L247.60 7.68L247.60 7.68Q248.08 6.85 248.65 6.21L248.65 6.21L248.65 6.21Q249.21 5.57 249.86 5.19L249.86 5.19L249.86 5.19Q250.52 4.82 251.20 4.82L251.20 4.82L251.20 4.82Q251.43 4.82 251.62 4.85L251.62 4.85L251.62 4.85Q251.82 4.89 252.04 4.98ZM278.82 16.21L278.82 16.21L278.82 16.21Q278.80 16.23 278.77 16.23L278.77 16.23L278.77 16.23Q278.74 16.23 278.66 16.23L278.66 16.23L278.66 16.23Q278.46 16.23 278.20 16.16L278.20 16.16L278.20 16.16Q277.94 16.10 277.70 16.01L277.70 16.01L277.70 16.01Q277.45 15.92 277.28 15.81L277.28 15.81L277.28 15.81Q277.10 15.69 277.06 15.61L277.06 15.61L277.06 15.61Q277.05 15.41 277.05 15.20L277.05 15.20L277.05 15.20Q277.05 14.99 277.05 14.80L277.05 14.80L277.05 14.80Q277.05 13.23 277.28 11.52L277.28 11.52L277.28 11.52Q277.51 9.81 278.04 7.83L278.04 7.83L278.04 7.83Q278.10 7.63 278.16 7.33L278.16 7.33L278.16 7.33Q278.22 7.03 278.29 6.68L278.29 6.68L278.29 6.68Q277.96 6.94 277.49 7.53L277.49 7.53L277.49 7.53Q277.03 8.11 276.52 8.90L276.52 8.90L276.52 8.90Q276.01 9.69 275.50 10.63L275.50 10.63L275.50 10.63Q274.99 11.58 274.57 12.55L274.57 12.55L274.57 12.55Q274.15 13.52 273.85 14.48L273.85 14.48L273.85 14.48Q273.55 15.43 273.48 16.24L273.48 16.24L273.48 16.24Q272.80 16.04 272.54 15.85L272.54 15.85L272.54 15.85Q272.29 15.65 272.29 15.37L272.29 15.37L272.29 15.37Q272.29 15.12 272.44 14.66L272.44 14.66L272.44 14.66Q272.59 14.20 272.87 13.57L272.87 13.57L272.87 13.57Q273.15 12.94 273.56 12.16L273.56 12.16L273.56 12.16Q273.97 11.38 274.46 10.49L274.46 10.49L274.46 10.49Q275.02 9.46 275.55 8.57L275.55 8.57L275.55 8.57Q276.09 7.67 276.61 6.94L276.61 6.94L276.61 6.94Q277.13 6.22 277.63 5.68L277.63 5.68L277.63 5.68Q278.12 5.15 278.61 4.87L278.61 4.87L278.61 4.87Q278.81 4.87 279.14 4.97L279.14 4.97L279.14 4.97Q279.47 5.07 279.78 5.21L279.78 5.21L279.78 5.21Q280.10 5.35 280.34 5.49L280.34 5.49L280.34 5.49Q280.59 5.64 280.62 5.74L280.62 5.74L280.62 5.74Q280.42 6.13 280.15 6.92L280.15 6.92L280.15 6.92Q279.89 7.70 279.61 8.69L279.61 8.69L279.61 8.69Q279.34 9.69 279.10 10.80L279.10 10.80L279.10 10.80Q278.85 11.91 278.71 12.94L278.71 12.94L278.71 12.94Q279.03 12.17 279.46 11.33L279.46 11.33L279.46 11.33Q279.89 10.50 280.36 9.68L280.36 9.68L280.36 9.68Q280.84 8.86 281.34 8.09L281.34 8.09L281.34 8.09Q281.83 7.32 282.31 6.69L282.31 6.69L282.31 6.69Q282.79 6.05 283.20 5.57L283.20 5.57L283.20 5.57Q283.61 5.10 283.93 4.87L283.93 4.87L283.93 4.87Q284.13 4.87 284.46 4.97L284.46 4.97L284.46 4.97Q284.79 5.07 285.10 5.21L285.10 5.21L285.10 5.21Q285.42 5.35 285.66 5.49L285.66 5.49L285.66 5.49Q285.91 5.64 285.94 5.74L285.94 5.74L285.94 5.74Q285.49 6.54 285.15 7.69L285.15 7.69L285.15 7.69Q284.82 8.83 284.58 10.09L284.58 10.09L284.58 10.09Q284.35 11.35 284.23 12.59L284.23 12.59L284.23 12.59Q284.12 13.83 284.12 14.81L284.12 14.81L284.12 14.81Q284.12 15.13 284.12 15.48L284.12 15.48L284.12 15.48Q284.12 15.83 284.14 16.21L284.14 16.21L284.14 16.21Q283.95 16.21 283.67 16.16L283.67 16.16L283.67 16.16Q283.40 16.11 283.14 16.03L283.14 16.03L283.14 16.03Q282.88 15.95 282.67 15.84L282.67 15.84L282.67 15.84Q282.46 15.74 282.38 15.61L282.38 15.61L282.38 15.61Q282.37 15.41 282.37 15.20L282.37 15.20L282.37 15.20Q282.37 14.99 282.37 14.80L282.37 14.80L282.37 14.80Q282.37 13.23 282.60 11.52L282.60 11.52L282.60 11.52Q282.83 9.81 283.36 7.83L283.36 7.83L283.36 7.83Q283.42 7.63 283.49 7.29L283.49 7.29L283.49 7.29Q283.56 6.96 283.63 6.59L283.63 6.59L283.63 6.59Q283.23 6.79 282.74 7.34L282.74 7.34L282.74 7.34Q282.24 7.90 281.73 8.69L281.73 8.69L281.73 8.69Q281.22 9.48 280.72 10.44L280.72 10.44L280.72 10.44Q280.22 11.41 279.82 12.41L279.82 12.41L279.82 12.41Q279.43 13.41 279.15 14.40L279.15 14.40L279.15 14.40Q278.88 15.39 278.82 16.21ZM299.52 4.98L299.52 4.98L299.52 4.98Q299.78 5.10 300.06 5.27L300.06 5.27L300.06 5.27Q300.34 5.45 300.58 5.63L300.58 5.63L300.58 5.63Q300.82 5.81 300.98 5.98L300.98 5.98L300.98 5.98Q301.14 6.16 301.15 6.27L301.15 6.27L301.15 6.27Q300.92 6.22 300.68 6.20L300.68 6.20L300.68 6.20Q300.44 6.17 300.24 6.17L300.24 6.17L300.24 6.17Q299.61 6.17 298.99 6.48L298.99 6.48L298.99 6.48Q298.37 6.79 297.81 7.32L297.81 7.32L297.81 7.32Q297.25 7.85 296.77 8.57L296.77 8.57L296.77 8.57Q296.30 9.28 295.95 10.09L295.95 10.09L295.95 10.09Q295.61 10.91 295.41 11.77L295.41 11.77L295.41 11.77Q295.22 12.64 295.22 13.48L295.22 13.48L295.22 13.48Q295.22 14.57 295.58 15.11L295.58 15.11L295.58 15.11Q295.95 15.64 296.65 15.64L296.65 15.64L296.65 15.64Q296.98 15.64 297.37 15.51L297.37 15.51L297.37 15.51Q297.77 15.37 298.17 15.13L298.17 15.13L298.17 15.13Q298.58 14.90 298.97 14.56L298.97 14.56L298.97 14.56Q299.36 14.22 299.70 13.82L299.70 13.82L299.70 13.82Q300.19 13.23 300.58 12.48L300.58 12.48L300.58 12.48Q300.97 11.73 301.24 10.89L301.24 10.89L301.24 10.89Q301.52 10.05 301.66 9.16L301.66 9.16L301.66 9.16Q301.81 8.27 301.81 7.42L301.81 7.42L301.81 7.42Q301.81 7.08 301.80 6.85L301.80 6.85L301.80 6.85Q301.78 6.62 301.76 6.46L301.76 6.46L301.76 6.46Q301.74 6.30 301.73 6.20L301.73 6.20L301.73 6.20Q301.71 6.10 301.70 6.03L301.70 6.03L301.70 6.03Q301.87 6.12 302.07 6.24L302.07 6.24L302.07 6.24Q302.27 6.36 302.45 6.59L302.45 6.59L302.45 6.59Q302.62 6.82 302.74 7.20L302.74 7.20L302.74 7.20Q302.86 7.57 302.86 8.18L302.86 8.18L302.86 8.18Q302.86 9.16 302.63 10.10L302.63 10.10L302.63 10.10Q302.40 11.05 301.99 11.90L301.99 11.90L301.99 11.90Q301.57 12.75 301.01 13.50L301.01 13.50L301.01 13.50Q300.45 14.24 299.81 14.80L299.81 14.80L299.81 14.80Q298.97 15.54 298.02 15.95L298.02 15.95L298.02 15.95Q297.07 16.35 296.18 16.35L296.18 16.35L296.18 16.35Q294.90 16.35 294.22 15.53L294.22 15.53L294.22 15.53Q293.54 14.71 293.54 13.12L293.54 13.12L293.54 13.12Q293.54 12.26 293.73 11.31L293.73 11.31L293.73 11.31Q293.92 10.36 294.26 9.44L294.26 9.44L294.26 9.44Q294.60 8.51 295.08 7.68L295.08 7.68L295.08 7.68Q295.55 6.85 296.12 6.21L296.12 6.21L296.12 6.21Q296.69 5.57 297.34 5.19L297.34 5.19L297.34 5.19Q297.99 4.82 298.68 4.82L298.68 4.82L298.68 4.82Q298.90 4.82 299.10 4.85L299.10 4.85L299.10 4.85Q299.29 4.89 299.52 4.98ZM319.83 7.46L319.83 7.46L319.83 7.46Q319.83 8.33 319.35 9.01L319.35 9.01L319.35 9.01Q318.88 9.69 318.05 10.14L318.05 10.14L318.05 10.14Q318.58 10.50 318.90 11.03L318.90 11.03L318.90 11.03Q319.21 11.55 319.21 12.18L319.21 12.18L319.21 12.18Q319.21 12.94 318.76 13.67L318.76 13.67L318.76 13.67Q318.30 14.41 317.55 14.97L317.55 14.97L317.55 14.97Q316.79 15.54 315.83 15.89L315.83 15.89L315.83 15.89Q314.86 16.24 313.85 16.24L313.85 16.24L313.85 16.24Q312.76 16.24 311.94 15.83L311.94 15.83L311.94 15.83Q311.12 15.41 310.66 14.66L310.66 14.66L310.66 14.66Q310.80 14.24 311.03 13.62L311.03 13.62L311.03 13.62Q311.26 12.99 311.54 12.30L311.54 12.30L311.54 12.30Q311.82 11.61 312.11 10.92L312.11 10.92L312.11 10.92Q312.40 10.23 312.65 9.69L312.65 9.69L312.65 9.69Q313.18 8.50 313.60 7.71L313.60 7.71L313.60 7.71Q314.02 6.93 314.37 6.47L314.37 6.47L314.37 6.47Q313.60 6.71 312.97 7.01L312.97 7.01L312.97 7.01Q312.34 7.31 312.05 7.59L312.05 7.59L312.05 7.59Q311.92 7.50 311.79 7.34L311.79 7.34L311.79 7.34Q311.65 7.17 311.53 6.96L311.53 6.96L311.53 6.96Q311.42 6.76 311.34 6.55L311.34 6.55L311.34 6.55Q311.26 6.34 311.25 6.17L311.25 6.17L311.25 6.17Q311.61 5.92 312.19 5.69L312.19 5.69L312.19 5.69Q312.77 5.46 313.46 5.29L313.46 5.29L313.46 5.29Q314.15 5.12 314.87 5.03L314.87 5.03L314.87 5.03Q315.59 4.93 316.25 4.93L316.25 4.93L316.25 4.93Q317.93 4.93 318.88 5.60L318.88 5.60L318.88 5.60Q319.83 6.27 319.83 7.46ZM314.50 10.81L314.50 10.81L314.50 10.81Q314.23 10.68 314.01 10.43L314.01 10.43L314.01 10.43Q313.68 11.14 313.40 11.83L313.40 11.83L313.40 11.83Q313.11 12.52 312.89 13.10L312.89 13.10L312.89 13.10Q312.66 13.69 312.52 14.13L312.52 14.13L312.52 14.13Q312.38 14.56 312.37 14.76L312.37 14.76L312.37 14.76Q312.56 14.87 312.84 14.92L312.84 14.92L312.84 14.92Q313.11 14.98 313.52 14.98L313.52 14.98L313.52 14.98Q314.47 14.98 315.34 14.71L315.34 14.71L315.34 14.71Q316.20 14.45 316.86 13.99L316.86 13.99L316.86 13.99Q317.52 13.54 317.91 12.95L317.91 12.95L317.91 12.95Q318.30 12.36 318.30 11.72L318.30 11.72L318.30 11.72Q318.30 10.79 317.51 10.39L317.51 10.39L317.51 10.39Q316.41 10.84 315.04 10.84L315.04 10.84L315.04 10.84Q314.85 10.84 314.74 10.84L314.74 10.84L314.74 10.84Q314.64 10.84 314.50 10.81ZM317.21 5.95L317.21 5.95L317.21 5.95Q316.92 5.95 316.59 5.98L316.59 5.98L316.59 5.98Q316.26 6.02 315.90 6.09L315.90 6.09L315.90 6.09Q315.95 6.15 315.99 6.21L315.99 6.21L315.99 6.21Q316.02 6.27 316.05 6.34L316.05 6.34L316.05 6.34Q315.92 6.51 315.74 6.83L315.74 6.83L315.74 6.83Q315.56 7.15 315.34 7.58L315.34 7.58L315.34 7.58Q315.11 8.01 314.87 8.53L314.87 8.53L314.87 8.53Q314.62 9.04 314.37 9.59L314.37 9.59L314.37 9.59Q314.61 9.53 314.95 9.50L314.95 9.50L314.95 9.50Q315.29 9.46 315.63 9.46L315.63 9.46L315.63 9.46Q315.81 9.46 315.99 9.48L315.99 9.48L315.99 9.48Q316.16 9.49 316.33 9.52L316.33 9.52L316.33 9.52Q317.00 9.41 317.54 9.19L317.54 9.19L317.54 9.19Q318.08 8.97 318.47 8.69L318.47 8.69L318.47 8.69Q318.86 8.40 319.07 8.05L319.07 8.05L319.07 8.05Q319.28 7.70 319.28 7.31L319.28 7.31L319.28 7.31Q319.28 6.64 318.75 6.29L318.75 6.29L318.75 6.29Q318.22 5.95 317.21 5.95ZM327.67 14.38L327.67 14.38L327.67 14.38Q327.67 13.87 327.83 13.07L327.83 13.07L327.83 13.07Q327.99 12.26 328.25 11.33L328.25 11.33L328.25 11.33Q328.51 10.40 328.85 9.43L328.85 9.43L328.85 9.43Q329.18 8.46 329.53 7.60L329.53 7.60L329.53 7.60Q329.88 6.75 330.22 6.10L330.22 6.10L330.22 6.10Q330.55 5.46 330.82 5.18L330.82 5.18L330.82 5.18Q330.96 5.19 331.19 5.29L331.19 5.29L331.19 5.29Q331.42 5.38 331.66 5.50L331.66 5.50L331.66 5.50Q331.90 5.63 332.09 5.78L332.09 5.78L332.09 5.78Q332.29 5.92 332.35 6.05L332.35 6.05L332.35 6.05Q331.94 6.41 331.54 7.15L331.54 7.15L331.54 7.15Q331.14 7.88 330.77 8.82L330.77 8.82L330.77 8.82Q330.40 9.76 330.08 10.80L330.08 10.80L330.08 10.80Q329.76 11.84 329.52 12.82L329.52 12.82L329.52 12.82Q329.28 13.80 329.15 14.64L329.15 14.64L329.15 14.64Q329.01 15.48 329.01 16.00L329.01 16.00L329.01 16.00Q329.01 16.24 329.06 16.30L329.06 16.30L329.06 16.30Q328.75 16.28 328.61 16.19L328.61 16.19L328.61 16.19Q328.47 16.10 328.39 16.00L328.39 16.00L328.39 16.00Q328.31 15.89 328.25 15.79L328.25 15.79L328.25 15.79Q328.19 15.68 328.06 15.62L328.06 15.62L328.06 15.62Q327.96 15.58 327.89 15.43L327.89 15.43L327.89 15.43Q327.82 15.27 327.77 15.09L327.77 15.09L327.77 15.09Q327.73 14.90 327.70 14.70L327.70 14.70L327.70 14.70Q327.67 14.50 327.67 14.38ZM343.87 14.38L343.87 14.38L343.87 14.38Q344.22 14.98 344.22 15.54L344.22 15.54L344.22 15.54Q344.22 15.67 344.20 15.77L344.20 15.77L344.20 15.77Q344.18 15.88 344.15 15.99L344.15 15.99L344.15 15.99Q343.91 15.96 343.65 15.95L343.65 15.95L343.65 15.95Q343.39 15.93 343.11 15.93L343.11 15.93L343.11 15.93Q342.78 15.93 342.43 15.95L342.43 15.95L342.43 15.95Q342.09 15.97 341.67 16.02L341.67 16.02L341.67 16.02Q341.25 16.06 340.73 16.13L340.73 16.13L340.73 16.13Q340.21 16.20 339.53 16.31L339.53 16.31L339.53 16.31Q339.21 16.20 338.88 15.87L338.88 15.87L338.88 15.87Q338.56 15.54 338.28 15.08L338.28 15.08L338.28 15.08Q338.42 14.77 338.63 14.31L338.63 14.31L338.63 14.31Q338.84 13.86 339.12 13.21L339.12 13.21L339.12 13.21Q339.40 12.56 339.74 11.68L339.74 11.68L339.74 11.68Q340.09 10.81 340.48 9.66L340.48 9.66L340.48 9.66Q340.73 8.90 340.91 8.33L340.91 8.33L340.91 8.33Q341.10 7.76 341.24 7.22L341.24 7.22L341.24 7.22Q341.39 6.68 341.53 6.09L341.53 6.09L341.53 6.09Q341.67 5.50 341.84 4.73L341.84 4.73L341.84 4.73Q342.40 4.84 342.81 5.14L342.81 5.14L342.81 5.14Q343.22 5.45 343.60 6.01L343.60 6.01L343.60 6.01Q343.49 6.19 343.31 6.59L343.31 6.59L343.31 6.59Q343.13 7 342.88 7.58L342.88 7.58L342.88 7.58Q342.64 8.16 342.34 8.90L342.34 8.90L342.34 8.90Q342.05 9.63 341.73 10.47L341.73 10.47L341.73 10.47Q341.42 11.30 341.12 12.03L341.12 12.03L341.12 12.03Q340.83 12.75 340.60 13.34L340.60 13.34L340.60 13.34Q340.37 13.93 340.23 14.35L340.23 14.35L340.23 14.35Q340.09 14.77 340.09 14.98L340.09 14.98L340.09 14.98Q340.31 14.97 340.49 14.95L340.49 14.95L340.49 14.95Q340.68 14.94 340.87 14.90L340.87 14.90L340.87 14.90Q341.07 14.87 341.30 14.82L341.30 14.82L341.30 14.82Q341.53 14.77 341.85 14.69L341.85 14.69L341.85 14.69Q342.13 14.62 342.37 14.57L342.37 14.57L342.37 14.57Q342.61 14.52 342.84 14.48L342.84 14.48L342.84 14.48Q343.07 14.45 343.31 14.43L343.31 14.43L343.31 14.43Q343.56 14.41 343.87 14.38ZM358.29 9.21L358.29 9.21L358.29 9.21Q358.75 9.21 359.01 9.46L359.01 9.46L359.01 9.46Q359.27 9.72 359.27 10.16L359.27 10.16L359.27 10.16Q359.27 10.28 359.25 10.39L359.25 10.39L359.25 10.39Q359.23 10.51 359.20 10.60L359.20 10.60L359.20 10.60Q359.02 10.57 358.79 10.55L358.79 10.55L358.79 10.55Q358.57 10.53 358.26 10.53L358.26 10.53L358.26 10.53Q357.66 10.53 357.04 10.63L357.04 10.63L357.04 10.63Q356.43 10.74 355.87 10.81L355.87 10.81L355.87 10.81Q355.54 11.55 355.28 12.24L355.28 12.24L355.28 12.24Q355.01 12.94 354.82 13.51L354.82 13.51L354.82 13.51Q354.63 14.08 354.53 14.50L354.53 14.50L354.53 14.50Q354.42 14.92 354.41 15.13L354.41 15.13L354.41 15.13Q355.54 14.90 356.70 14.73L356.70 14.73L356.70 14.73Q357.85 14.56 359.13 14.48L359.13 14.48L359.13 14.48Q359.28 14.71 359.39 14.99L359.39 14.99L359.39 14.99Q359.49 15.27 359.49 15.60L359.49 15.60L359.49 15.60Q359.49 15.68 359.49 15.78L359.49 15.78L359.49 15.78Q359.49 15.88 359.46 15.97L359.46 15.97L359.46 15.97Q359.07 15.96 358.64 15.95L358.64 15.95L358.64 15.95Q358.20 15.95 357.50 15.95L357.50 15.95L357.50 15.95Q357.04 15.95 356.63 15.97L356.63 15.97L356.63 15.97Q356.22 15.99 355.80 16.03L355.80 16.03L355.80 16.03Q355.38 16.07 354.91 16.14L354.91 16.14L354.91 16.14Q354.44 16.21 353.85 16.31L353.85 16.31L353.85 16.31Q353.21 16.06 352.60 15.08L352.60 15.08L352.60 15.08Q352.84 14.57 353.27 13.54L353.27 13.54L353.27 13.54Q353.70 12.52 354.35 10.79L354.35 10.79L354.35 10.79Q353.72 10.60 353.53 10.09L353.53 10.09L353.53 10.09Q353.60 10.02 353.93 9.92L353.93 9.92L353.93 9.92Q354.27 9.81 354.76 9.70L354.76 9.70L354.76 9.70Q354.97 9.16 355.12 8.75L355.12 8.75L355.12 8.75Q355.26 8.34 355.38 7.99L355.38 7.99L355.38 7.99Q355.49 7.63 355.58 7.29L355.58 7.29L355.58 7.29Q355.67 6.94 355.75 6.54L355.75 6.54L355.75 6.54Q355.26 6.51 354.98 6.27L354.98 6.27L354.98 6.27Q354.70 6.02 354.70 5.63L354.70 5.63L354.70 5.63Q354.70 5.52 354.74 5.36L354.74 5.36L354.74 5.36Q354.77 5.21 354.82 5.10L354.82 5.10L354.82 5.10Q355.10 5.14 355.35 5.15L355.35 5.15L355.35 5.15Q355.61 5.17 356.03 5.17L356.03 5.17L356.03 5.17Q356.92 5.17 357.69 5.12L357.69 5.12L357.69 5.12Q358.46 5.07 359.08 5.01L359.08 5.01L359.08 5.01Q359.70 4.96 360.15 4.91L360.15 4.91L360.15 4.91Q360.60 4.86 360.84 4.86L360.84 4.86L360.84 4.86Q361.16 4.86 361.41 5.19L361.41 5.19L361.41 5.19Q361.66 5.53 361.79 6.15L361.79 6.15L361.79 6.15Q361.35 6.10 361.08 6.09L361.08 6.09L361.08 6.09Q360.81 6.08 360.60 6.08L360.60 6.08L360.60 6.08Q359.83 6.08 359.19 6.15L359.19 6.15L359.19 6.15Q358.55 6.23 357.97 6.31L357.97 6.31L357.97 6.31Q357.88 6.44 357.78 6.64L357.78 6.64L357.78 6.64Q357.67 6.83 357.50 7.18L357.50 7.18L357.50 7.18Q357.34 7.53 357.09 8.06L357.09 8.06L357.09 8.06Q356.85 8.60 356.50 9.39L356.50 9.39L356.50 9.39Q357.03 9.31 357.50 9.26L357.50 9.26L357.50 9.26Q357.97 9.21 358.29 9.21Z"></path></g></svg>